<?xml version="1.0" encoding="UTF-8"?>
<svg id="Layer_1" data-name="Layer 1" xmlns="http://www.w3.org/2000/svg" viewBox="0 0 515.31 515.31">
  <defs>
    <style>
      .cls-1 {
        fill: none;
        stroke: #000;
        stroke-miterlimit: 10;
        stroke-width: 10px;
      }
    </style>
  </defs>
  <g id="VECTOR">
    <path class="cls-1" d="m241.1,68.83c66.46-38.54,111.08-24.36,131.51,48.19,76.94-1.48,94.04,48.17,78.41,125.79,39.46,58.46,22.94,100.15-49.83,124.97-13.31,83.43-56.59,101.04-128.24,56.36-46.96,50.8-89.96,42.27-129.06-24.5-72.56-12.34-101.1-49.54-54.73-129.06-47.25-51.47-47.72-93.68,27.77-120.89,7.04-79.56,47.58-107.81,124.16-80.86Z"/>
    <line class="cls-1" x1="116.95" y1="149.7" x2="401.2" y2="367.79"/>
    <line class="cls-1" x1="372.61" y1="117.03" x2="143.9" y2="399.64"/>
    <line class="cls-1" x1="241.1" y1="68.83" x2="272.96" y2="424.15"/>
    <line class="cls-1" x1="451.02" y1="242.81" x2="89.18" y2="270.59"/>
    <circle class="cls-1" cx="257.66" cy="257.66" r="252.66"/>
  </g>
</svg>