<?xml version="1.0" encoding="UTF-8"?><svg id="Layer_1" xmlns="http://www.w3.org/2000/svg" viewBox="0 0 538.85 527.36"><defs><style>.cls-1{fill:none;stroke:#000;stroke-miterlimit:10;stroke-width:19px;}</style></defs><path d="m127.87,246.37c21,20.6,37.77,45.13,52.98,70.13,13.07,21.97,24.82,44.94,33.34,69.15,1.22,3.51,2.37,7.06,3.33,10.73-2.78-2.58-5.36-5.28-7.88-8.02-17.28-18.97-31.94-40.2-45.1-62.12-14.81-25.24-28.48-51.62-36.67-79.88h0Z"/><path d="m145.62,177.43c14.82,15.96,28.1,33.25,40.98,50.75,34.78,48.28,66.31,99.05,91.35,153.1,2.25,4.97,4.44,9.97,6.44,15.1-29.28-32.04-54.04-67.94-77.41-104.39-22.96-36.71-44.85-74.42-61.36-114.56h0Z"/><path d="m192.97,149.03c32.75,36.79,60.97,77.38,87.87,118.53,26.48,41.42,51.88,83.83,71.91,128.83-32.78-36.76-61-77.36-87.87-118.53-26.45-41.44-51.84-83.85-71.91-128.83h0Z"/><path d="m252.14,131.57c29.74,32.71,54.99,69.24,78.88,106.3,23.48,37.33,45.87,75.68,62.85,116.5-29.77-32.68-55.02-69.22-78.88-106.3-23.45-37.35-45.83-75.7-62.85-116.5h0Z"/><path d="m309.55,116.48c23.09,23.39,41.86,50.69,59.14,78.48,14.88,24.43,28.45,49.84,38.82,76.58,1.48,3.87,2.9,7.78,4.12,11.81-3.03-2.92-5.87-5.97-8.64-9.05-19.09-21.41-35.53-45.07-50.5-69.43-16.87-28.04-32.62-57.19-42.94-88.4h0Z"/><path class="cls-1" d="m470.13,177.33c83.05,61.42,74.23,117.82,1.66,170.74,10.17,99.67-37.27,131.35-119.56,121.91-58.17,68.75-115.49,58.42-172.32,1.02-78.47,8.02-120.8-28.85-120.33-118.92-65.04-59.29-68.79-118.25.89-176.81-2.59-89.4,33.59-131.46,117.01-115.84,62.43-65.14,121.04-68.09,175.26.22,111.81-11.24,131.67,41.36,117.38,117.68Z"/></svg>